<!DOCTYPE svg PUBLIC "-//W3C//DTD SVG 1.1//EN" "http://www.w3.org/Graphics/SVG/1.1/DTD/svg11.dtd">
<!-- Uploaded to: SVG Repo, www.svgrepo.com, Transformed by: SVG Repo Mixer Tools -->
<svg fill="#262F4C" width="256px" height="256px" viewBox="-25.6 -25.6 307.20 307.20" id="Flat" xmlns="http://www.w3.org/2000/svg" stroke="#262F4C" stroke-width="25.6">
<g id="SVGRepo_bgCarrier" stroke-width="0"/>
<g id="SVGRepo_tracerCarrier" stroke-linecap="round" stroke-linejoin="round" stroke="#ffffff" stroke-width="35.839999999999996"> <path d="M208.48535,120.48535a12.00033,12.00033,0,0,1-16.9707,0L140,68.9707V216a12,12,0,0,1-24,0V68.9707L64.48535,120.48535a12.0001,12.0001,0,0,1-16.9707-16.9707l72-72a12.00151,12.00151,0,0,1,16.9707,0l72,72A11.99975,11.99975,0,0,1,208.48535,120.48535Z"/> </g>
<g id="SVGRepo_iconCarrier"> <path d="M208.48535,120.48535a12.00033,12.00033,0,0,1-16.9707,0L140,68.9707V216a12,12,0,0,1-24,0V68.9707L64.48535,120.48535a12.0001,12.0001,0,0,1-16.9707-16.9707l72-72a12.00151,12.00151,0,0,1,16.9707,0l72,72A11.99975,11.99975,0,0,1,208.48535,120.48535Z"/> </g>
</svg>